<svg xmlns="http://www.w3.org/2000/svg" xmlns:xlink="http://www.w3.org/1999/xlink" width="32" height="32" viewBox="0 0 32 32">
    <defs>
        <path id="a" d="M17.5 1.865l10 5.77a3 3 0 0 1 1.5 2.598v11.534a3 3 0 0 1-1.5 2.599l-10 5.77a3 3 0 0 1-3 0l-10-5.77A3 3 0 0 1 3 21.767V10.233a3 3 0 0 1 1.5-2.599l10-5.77a3 3 0 0 1 3 0z"/>
        <linearGradient id="c" x1="57.675%" x2="57.675%" y1="36.212%" y2="-36.693%">
            <stop offset="0%" stop-color="#0090FF"/>
            <stop offset="100%" stop-color="#0059FF"/>
        </linearGradient>
        <linearGradient id="d" x1="84.356%" x2="-27.741%" y1="100%" y2="-10.243%">
            <stop offset="0%" stop-color="#0090FF"/>
            <stop offset="100%" stop-color="#0059FF"/>
        </linearGradient>
    </defs>
    <g fill="none" fill-rule="evenodd">
        <path d="M0 0h32v32H0z"/>
        <mask id="b" fill="#fff">
            <use xlink:href="#a"/>
        </mask>
        <path fill="#FC5A24" d="M21.196 28L29 23.5v-9c-2.473 1.801-4.306 3.734-5.5 5.8s-1.962 4.632-2.304 7.7z" mask="url(#b)"/>
        <path fill="url(#c)" d="M16 1l13 7.5-2.994 1.728A20 20 0 0 0 16 27.55V31L3 23.5v-15L16 1z" mask="url(#b)"/>
        <path fill="url(#d)" d="M18.682 17.547A19.987 19.987 0 0 0 16 27.551V31L3 23.5v-15l15.682 9.047z" mask="url(#b)"/>
    </g>
</svg>
