<svg height="48" viewBox="0 0 96 48" width="96" xmlns="http://www.w3.org/2000/svg"><g fill="none" fill-rule="evenodd"><path d="m0 0h24v24h-24z"/><circle cx="12" cy="12" fill="#bec8d2" r="9"/><g transform="translate(6 6)"><path d="m0 0h12v12h-12z"/><path d="m6 5.293 2.475-2.475.707.707-2.475 2.475 2.475 2.475-.707.707-2.475-2.475-2.475 2.475-.707-.707 2.475-2.475-2.475-2.475.707-.707z" fill="#fff"/></g><path d="m0 24h24v24h-24z"/><circle cx="12" cy="36" fill="#9aa7b9" r="9"/><g transform="translate(6 30)"><path d="m0 0h12v12h-12z"/><path d="m6 5.293 2.475-2.475.707.707-2.475 2.475 2.475 2.475-.707.707-2.475-2.475-2.475 2.475-.707-.707 2.475-2.475-2.475-2.475.707-.707z" fill="#fff"/></g><g transform="translate(24)"><path d="m0 0h24v24h-24z"/><path d="m8 6h7c2.209139 0 4 1.790861 4 4v2h-2v-2c0-1.1045695-.8954305-2-2-2h-7v2.5l-4-3.5 4-3.5zm8 10v-2.5l4 3.5-4 3.5v-2.5h-7c-2.209139 0-4-1.790861-4-4v-2h2v2c0 1.1045695.8954305 2 2 2z" fill="#9aa7b9"/></g><g transform="translate(24 24)"><path d="m0 0h24v24h-24z"/><path d="m8 6h7c2.209139 0 4 1.790861 4 4v2h-2v-2c0-1.1045695-.8954305-2-2-2h-7v2.5l-4-3.5 4-3.5zm8 10v-2.5l4 3.5-4 3.5v-2.5h-7c-2.209139 0-4-1.790861-4-4v-2h2v2c0 1.1045695.8954305 2 2 2z" fill="#006aff"/></g><g transform="translate(48)"><path d="m0 0h24v24h-24z"/><path d="m8 7v-3c0-.55228475.44771525-1 1-1h10c.5522847 0 1 .44771525 1 1v12c0 .5522847-.4477153 1-1 1h-3v3c0 .552-.45 1-1.007 1h-9.986c-.26634654.0015966-.52234681-.1030229-.71134137-.2907037-.18899457-.1876808-.29539733-.4429451-.29565863-.7092963l.003-12c0-.552.45-1 1.007-1zm-1.997 2-.003 10h8v-10zm3.997-2h6v8h2v-10h-8z" fill="#9aa7b9" fill-rule="nonzero"/></g><g transform="translate(48 24)"><path d="m0 0h24v24h-24z"/><path d="m8 7v-3c0-.55228475.44771525-1 1-1h10c.5522847 0 1 .44771525 1 1v12c0 .5522847-.4477153 1-1 1h-3v3c0 .552-.45 1-1.007 1h-9.986c-.26634654.0015966-.52234681-.1030229-.71134137-.2907037-.18899457-.1876808-.29539733-.4429451-.29565863-.7092963l.003-12c0-.552.45-1 1.007-1zm-1.997 2-.003 10h8v-10zm3.997-2h6v8h2v-10h-8z" fill="#006aff" fill-rule="nonzero"/></g><g transform="translate(72)"><path d="m0 0h24v24h-24z"/><path d="m10.4655 4.6575c1.0116962-.21214973 2.0563469-.21266044 3.06825-.0015.1365522.90138116.6762575 1.69147661 1.46625 2.1465.7893703.45659856 1.743773.528655 2.59275.19575.6887125.77104546 1.2104025 1.67627853 1.53225 2.65875-.7120273.569094-1.1261101 1.4314904-1.125 2.343 0 .948.4395 1.79325 1.1265 2.343-.3237514.9816583-.8460884 1.8861745-1.5345 2.65725-.8487593-.3326626-1.8028284-.2606106-2.592.19575-.7893317.4548747-1.3286888 1.2443123-1.4655 2.145-1.0115927.2126445-2.0562434.2136659-3.06825.003-.1359097-.9022099-.6756959-1.6932521-1.46625-2.14875-.78948735-.4563523-1.74388573-.5281323-2.59275-.195-.68880156-.7712658-1.21049633-1.6767624-1.53225-2.6595.71161588-.5687658 1.12565356-1.4305163 1.125-2.3415.00074598-.9117628-.41391065-1.7742044-1.1265-2.343.32375135-.98165832.84608838-1.88617449 1.5345-2.65725.8487593.33266265 1.80282839.26061055 2.592-.19575.78933174-.45487473 1.3286888-1.24431232 1.4655-2.145zm1.5345 10.3425c1.6568542 0 3-1.3431458 3-3s-1.3431458-3-3-3-3 1.3431458-3 3 1.3431458 3 3 3z" fill="#9aa7b9" fill-rule="nonzero"/></g><g transform="translate(72 24)"><path d="m0 0h24v24h-24z"/><path d="m10.4655 4.6575c1.0116962-.21214973 2.0563469-.21266044 3.06825-.0015.1365522.90138116.6762575 1.69147661 1.46625 2.1465.7893703.45659856 1.743773.528655 2.59275.19575.6887125.77104546 1.2104025 1.67627853 1.53225 2.65875-.7120273.569094-1.1261101 1.4314904-1.125 2.343 0 .948.4395 1.79325 1.1265 2.343-.3237514.9816583-.8460884 1.8861745-1.5345 2.65725-.8487593-.3326626-1.8028284-.2606106-2.592.19575-.7893317.4548747-1.3286888 1.2443123-1.4655 2.145-1.0115927.2126445-2.0562434.2136659-3.06825.003-.1359097-.9022099-.6756959-1.6932521-1.46625-2.14875-.78948735-.4563523-1.74388573-.5281323-2.59275-.195-.68880156-.7712658-1.21049633-1.6767624-1.53225-2.6595.71161588-.5687658 1.12565356-1.4305163 1.125-2.3415.00074598-.9117628-.41391065-1.7742044-1.1265-2.343.32375135-.98165832.84608838-1.88617449 1.5345-2.65725.8487593.33266265 1.80282839.26061055 2.592-.19575.78933174-.45487473 1.3286888-1.24431232 1.4655-2.145zm1.5345 10.3425c1.6568542 0 3-1.3431458 3-3s-1.3431458-3-3-3-3 1.3431458-3 3 1.3431458 3 3 3z" fill="#006aff" fill-rule="nonzero"/></g></g></svg>